<svg width="335" height="90" viewBox="0 0 335 90" fill="none" xmlns="http://www.w3.org/2000/svg">
<path d="M45.3261 0.801613C37.9714 2.75457 32.528 6.66048 30.2427 11.5636C27.5833 17.3394 30.1595 21.5362 38.3869 24.9019C47.4037 28.6 50.8941 30.9685 51.8498 34.0849C52.8471 37.5338 50.2708 41.1488 44.9937 43.6419C38.3869 46.7168 26.0874 46.052 24.7578 42.5616C24.2591 41.1904 24.8409 39.9854 26.2536 39.4452C27.1262 39.0712 27.2093 38.905 26.8354 38.1571C26.4614 37.4922 26.129 37.3676 25.2564 37.5753C23.6358 37.9908 22.7217 38.9465 22.2231 40.7748C21.4336 43.7666 22.7633 47.0492 25.8381 49.7501C31.4892 54.7779 42.5837 55.3181 51.3512 51.0382C54.8416 49.293 58.7059 45.4702 60.2849 42.1461C61.9054 38.7388 62.1963 34.1265 60.9913 31.7165C59.3292 28.4754 55.5064 25.8992 48.7334 23.4476C41.628 20.8298 37.6389 18.2951 37.6389 16.3421C37.6389 15.0125 38.9686 13.2673 40.7554 12.1869C48.9827 7.36686 60.0771 9.31982 60.0771 15.5527C60.0771 17.4641 61.3653 16.5084 62.9442 13.3919C64.1908 10.8988 64.1493 7.44997 62.8196 5.1646C60.1602 0.635403 52.8055 -1.19289 45.3261 0.801613Z" fill="#FF565E"/>
<path d="M206.133 0.76006C202.394 1.79886 200.482 2.62991 197.74 4.3751C191.216 8.57187 188.307 14.9709 190.967 19.2924C192.172 21.2453 195.704 23.5307 200.191 25.3174C207.837 28.3923 211.618 30.9685 212.615 33.9187C214.194 38.6972 208.128 44.1406 199.9 45.304C193.584 46.1766 186.77 45.0547 185.606 42.894C185.149 42.0214 186.147 40.0685 187.435 39.3621C188.224 38.905 187.933 38.3648 185.731 36.4119L184.027 34.916L181.285 38.9465C179.789 41.1904 177.504 44.0159 176.257 45.2209C174.013 47.3401 171.188 48.9191 170.648 48.3789C170.066 47.7972 170.648 43.2264 171.645 40.0685C172.268 38.2402 174.429 32.7137 176.507 27.8106C183.529 11.1897 184.194 8.36411 181.784 5.62167C180.537 4.16734 178.501 3.29474 176.34 3.29474C175.385 3.29474 175.218 3.50251 174.761 5.45546C174.18 7.99014 168.528 25.4005 168.196 25.7329C168.113 25.8576 167.905 25.6498 167.781 25.3174C167.323 24.0293 165.121 22.4503 163.168 22.0348C158.847 21.1206 154.816 23.3229 151.367 28.5585C149.539 31.3009 147.337 35.9548 147.337 37.1182C147.337 37.7831 144.968 41.3566 142.641 44.1406C140.772 46.3013 137.655 48.5867 136.45 48.5867C134.788 48.5867 135.578 44.7223 139.068 35.7886C141.852 28.6831 142.434 25.8992 141.395 24.3617C140.481 22.9489 138.195 21.9932 135.744 21.9932C133.708 21.9932 133.625 22.0348 133.625 23.1152C133.625 23.78 133.5 24.6941 133.375 25.1928C133.126 26.1069 133.084 26.1069 132.212 24.8188C130.217 21.827 125.73 20.9129 122.156 22.7412C120.079 23.8215 116.713 27.395 115.051 30.3868C113.68 32.7968 111.602 38.2402 111.602 39.4036C111.602 41.5228 107.862 44.0159 104.746 44.0159C103.707 44.0159 102.876 43.9328 102.876 43.8497C102.876 43.7666 103.624 42.1045 104.538 40.1931C106.449 36.1625 108.278 30.0959 108.278 27.769C108.278 25.6498 107.405 23.5307 106.159 22.6581C104.704 21.6608 101.629 21.7855 99.9258 22.9489C97.8066 24.3617 96.0614 26.9795 95.0226 30.2206C93.7345 34.1265 93.9007 39.9022 95.355 42.6862L96.2692 44.473L95.1888 45.7611C92.571 48.8775 90.5765 49.3346 89.0391 47.257C88.3743 46.3428 88.1249 45.304 88.0003 42.4369C87.7094 36.7443 89.4131 31.3425 92.6957 27.5197C94.3993 25.5252 94.4824 24.9434 93.2359 23.78C91.6984 22.4088 90.5765 21.9932 88.4158 21.9932C86.4213 21.9932 84.9254 22.7412 83.4295 24.4864C81.3935 26.8549 79.5236 33.7941 79.6483 38.4479C79.7314 40.5255 79.5236 41.3566 78.5264 43.1849C77.8615 44.3899 76.6565 46.1351 75.867 47.0492C73.1246 50.0825 71.7118 48.2542 71.7118 41.7305C71.7118 36.2041 73.7063 30.553 76.9474 26.9795C78.4017 25.4005 78.4433 25.2759 77.82 24.3617C76.1995 21.8686 71.6287 21.2038 69.094 23.1152C65.9776 25.5252 64.274 30.0959 63.9415 36.952C63.6507 42.7278 64.3571 46.0935 66.5178 49.2099C70.299 54.6533 75.6177 54.9441 80.0638 49.9163C81.6428 48.088 81.7674 48.0465 82.183 48.7944C82.4323 49.2515 83.3464 50.3319 84.219 51.1629C87.9172 54.7364 93.319 54.1962 98.0559 49.8332L99.9673 48.088L102.086 48.5867C104.413 49.1684 107.405 48.9191 109.691 47.9634C111.56 47.1739 111.477 47.1739 111.768 48.2958C112.433 50.9551 115.716 53.1574 119.081 53.1574C121.491 53.1574 123.777 52.077 126.395 49.7086L128.514 47.7972L129.802 49.667C131.589 52.1602 133.334 53.1574 135.952 53.1574C138.611 53.1574 141.436 51.7862 144.22 49.1268L146.298 47.0908L147.129 48.7529C148.376 51.2045 150.619 52.825 153.154 53.0743C155.98 53.3236 158.182 52.4095 161.257 49.7086L163.75 47.4648L164.415 49.0022C165.454 51.2876 167.697 52.8665 170.315 53.0743C173.473 53.3236 175.883 52.1186 179.748 48.3789C181.493 46.6753 183.03 45.2625 183.155 45.2625C183.28 45.2625 183.612 45.8027 183.903 46.5091C184.609 48.2127 187.726 50.9551 190.26 52.1186C194.374 54.03 201.189 54.404 206.673 53.1159C212.782 51.6615 218.724 47.1323 221.092 42.1461C222.713 38.7388 223.003 34.1265 221.798 31.7165C220.136 28.4754 216.314 25.8992 209.541 23.4476C202.061 20.7051 198.446 18.3782 198.446 16.259C198.446 14.8463 200.108 12.8518 202.103 11.8545C210.746 7.49152 220.884 9.44447 220.884 15.5527C220.884 17.4641 222.172 16.5084 223.751 13.3919C225.58 9.73534 224.541 4.87373 221.424 2.62991C217.976 0.136777 211.41 -0.694266 206.133 0.76006ZM129.012 28.5169C129.054 29.4726 128.763 30.0544 127.974 30.6777L126.893 31.5087L127.974 32.0073C128.805 32.3813 129.303 32.3813 130.134 32.0073C131.048 31.5918 131.173 31.6334 130.965 32.2566C130.841 32.6722 130.342 34.5005 129.843 36.3288C128.888 39.9438 128.098 41.2319 124.358 45.1378C121.99 47.5894 119.788 49.0022 119.164 48.3789C118.666 47.8803 118.957 43.4757 119.705 40.4424C120.785 36.0379 123.735 30.2206 126.228 27.6859C128.14 25.7329 128.347 25.6083 128.638 26.3562C128.846 26.8133 129.012 27.769 129.012 28.5169ZM164.332 28.5585C164.373 29.0987 163.916 29.9713 163.334 30.553C162.753 31.1347 162.296 31.6749 162.296 31.758C162.296 32.1735 164.83 32.3813 165.537 32.0073C166.285 31.5918 166.285 31.8411 165.204 35.5393C164.581 37.7 163.875 39.6945 163.667 39.9854C159.844 45.1794 156.312 48.5867 154.692 48.5867C154.11 48.5867 153.985 48.1711 153.985 46.1766C153.985 40.2347 157.642 31.2178 161.548 27.5612C163.708 25.5667 163.708 25.5252 163.999 26.564C164.165 27.1457 164.29 28.0183 164.332 28.5585ZM103.291 28.2676C103.291 30.0959 101.754 35.1237 100.341 37.8662C99.2609 39.9438 98.7208 39.4036 98.7208 36.2457C98.7208 32.5891 99.5102 29.9713 101.089 28.1845C101.92 27.2704 102.71 26.564 102.918 26.564C103.125 26.564 103.291 27.3119 103.291 28.2676Z" fill="#FF565E"/>
<path d="M259.943 8.9874C259.943 9.36137 259.445 11.439 258.863 13.5581C257.575 18.0873 257.699 18.0042 252.048 17.7965L248.309 17.6303V19.2092C248.309 21.0375 249.223 23.032 250.178 23.406C250.552 23.5307 251.965 23.6553 253.295 23.6553H255.746L253.96 28.974C251.924 34.9575 251.3 36.2872 249.14 39.2374C245.483 44.1821 239.583 48.3373 235.386 48.8775C233.225 49.1684 232.934 48.7529 232.934 45.1794V42.3954L235.344 41.9383C240.289 40.8995 244.527 37.7831 246.522 33.711C247.436 31.7996 247.685 30.7608 247.685 28.3507C247.685 25.5252 247.602 25.2759 246.273 23.9046C244.61 22.201 242.782 21.4946 239.998 21.4946C234.181 21.4946 228.073 28.1014 225.87 36.7858C223.876 44.5145 225.58 50.0825 230.649 52.5341C232.56 53.4898 233.35 53.656 235.511 53.4898C236.965 53.4067 238.752 52.9912 239.541 52.6172C240.331 52.2433 241.162 51.9108 241.452 51.9108C242.034 51.9108 247.685 48.088 249.264 46.5922L250.386 45.5118V46.7584C250.386 48.7113 252.048 51.1213 254.126 52.2433C255.663 53.0327 256.453 53.199 258.489 53.0743C261.647 52.8665 264.098 51.6615 267.547 48.5451L270.207 46.1351L270.705 47.7141C272.534 53.9469 279.805 54.9441 285.456 49.7917L287.7 47.7556L288.199 49.0022C289.819 52.9081 295.138 54.1962 299.958 51.9108C302.493 50.7058 307.811 45.4702 310.138 41.8968C311.967 39.0296 312.05 38.2817 310.554 36.5365C308.975 34.7082 308.767 34.7498 307.105 37.4091C303.573 43.1849 298.254 48.5867 296.177 48.5867C295.055 48.5867 295.886 44.0159 298.337 36.7858C301.371 27.769 301.579 26.7717 300.872 25.0266C300.124 23.2398 297.548 22.0348 294.556 21.9932C292.437 21.9932 292.354 22.0348 292.354 23.1567C292.354 23.78 292.022 25.5252 291.564 26.9795C287.368 41.689 287.492 41.3981 283.753 45.1378C282.007 46.883 279.639 48.5867 278.891 48.5867C277.935 48.5867 279.099 42.894 281.509 35.8301C284.168 28.1014 284.542 26.1485 283.67 24.5279C282.922 23.1983 280.096 21.9932 277.52 21.9932H275.318V23.406C275.318 24.1955 274.611 27.1457 273.739 30.0128C272.534 33.8356 271.661 35.9132 270.165 38.1571C266.301 43.9744 261.19 48.5867 258.614 48.5867C257.45 48.5867 257.45 48.5451 257.699 46.7999C257.824 45.8442 258.115 44.3068 258.364 43.3926C258.904 41.1488 265.345 22.6996 265.677 22.3257C265.844 22.201 266.716 22.201 267.63 22.3672L269.292 22.6165L268.378 23.5307C267.298 24.611 267.506 24.9019 269.542 24.9019C270.747 24.9019 271.329 24.6526 272.16 23.6138C273.572 21.9517 273.572 20.2896 272.118 18.6691C271.287 17.7549 270.456 17.2978 269.251 17.1316C267.506 16.9239 267.506 16.8823 267.88 15.5942C268.586 13.1426 268.337 11.439 267.132 10.2755C265.013 8.36411 259.943 7.44996 259.943 8.9874ZM243.364 26.2316C243.53 29.5557 242.824 31.5502 240.621 33.9603C239.167 35.5808 235.344 37.4091 234.721 36.7858C234.181 36.2457 237.796 30.0544 239.998 27.7274C242.491 25.1512 243.281 24.7772 243.364 26.2316Z" fill="#FF565E"/>
</svg>
